<svg width="50" height="50" viewBox="0 0 50 50" fill="none" xmlns="http://www.w3.org/2000/svg">
<rect width="50" height="50" rx="25" fill="white"/>
<path d="M21.4844 10C18.0923 10 15.332 12.7603 15.332 16.1523C15.332 16.6381 15.7251 17.0312 16.2109 17.0312C16.6967 17.0312 17.0898 16.6381 17.0898 16.1523C17.0898 13.7293 19.0613 11.7578 21.4844 11.7578C23.9074 11.7578 25.8789 13.7293 25.8789 16.1523C25.8789 16.6381 26.272 17.0312 26.7578 17.0312C27.2436 17.0312 27.6367 16.6381 27.6367 16.1523C27.6367 12.7603 24.8764 10 21.4844 10Z" fill="#A8EBFA"/>
<path d="M25.8789 16.1523C25.8789 16.6381 26.272 17.0312 26.7578 17.0312C27.2436 17.0312 27.6367 16.6381 27.6367 16.1523C27.6367 12.7603 24.8764 10 21.4844 10V11.7578C23.9074 11.7578 25.8789 13.7293 25.8789 16.1523Z" fill="#1FCEFC"/>
<path d="M32.6904 24.1211C31.6761 24.1211 30.9006 24.8953 30.7865 25.8789H30.7422V24.3408C30.7422 23.2486 29.8275 22.3633 28.7354 22.3633C27.6432 22.3633 26.7578 23.2486 26.7578 24.3408V22.583C26.7578 21.4908 25.8725 20.6055 24.7803 20.6055C23.6881 20.6055 22.832 21.4908 22.832 22.583V15.4932C22.832 14.6348 22.2487 13.9223 21.4844 13.6487C21.2761 13.5742 21.059 13.5156 20.8252 13.5156C19.733 13.5156 18.8477 14.401 18.8477 15.4932V25.8789H17.9688C16.5148 25.8789 15.332 27.0617 15.332 28.5156V33.3736C15.332 36.1331 16.865 38.673 19.3335 39.9073C19.4553 39.9682 19.5901 40 19.7266 40H21.4844H32.0312C32.2647 40 32.4879 39.9073 32.6526 39.7425C33.9333 38.4619 34.668 36.6886 34.668 34.8776V26.0986C34.668 25.0064 33.7826 24.1211 32.6904 24.1211Z" fill="#FFE1BA"/>
<path d="M32.6526 39.7422C33.9333 38.4617 34.668 36.6884 34.668 34.8774V26.0984C34.668 25.0062 33.7826 24.1208 32.6904 24.1208C31.6761 24.1208 30.9006 24.895 30.7865 25.8787H30.7422V24.3406C30.7422 23.2484 29.8275 22.363 28.7354 22.363C27.6432 22.363 26.7578 23.2484 26.7578 24.3406V22.5828C26.7578 21.4906 25.8725 20.6052 24.7803 20.6052C23.6881 20.6052 22.832 21.4906 22.832 22.5828V15.4929C22.832 14.6345 22.2487 13.922 21.4844 13.6484V39.9997H32.0312C32.2647 39.9997 32.4879 39.9071 32.6526 39.7422Z" fill="#FFBD86"/>
</svg>
