<svg width="50" height="50" viewBox="0 0 50 50" fill="none" xmlns="http://www.w3.org/2000/svg">
<rect width="50" height="50" rx="25" fill="white"/>
<path d="M40 13.1035V37.9311C40 39.0738 39.0737 40.0001 37.931 40.0001H12.069C10.9263 40.0001 10 39.0738 10 37.9311V13.1035H40Z" fill="#ECF0F1"/>
<path d="M40 13.1035V37.9311C40 39.0738 39.0737 40.0001 37.931 40.0001H12.069C10.9263 40.0001 10 39.0738 10 37.9311V13.1035H40Z" fill="#B0D3F0"/>
<path d="M40 12.069V14.1379H10V12.069C10 10.9263 10.9263 10 12.069 10H37.931C39.0737 10 40 10.9263 40 12.069Z" fill="#56595E"/>
<path d="M12.0793 12.5862C11.7936 12.5862 11.562 12.3547 11.562 12.069C11.562 11.7833 11.7936 11.5518 12.0793 11.5518C12.3649 11.5518 12.5965 11.7833 12.5965 12.069C12.5965 12.3547 12.3649 12.5862 12.0793 12.5862Z" fill="#E64C3C"/>
<path d="M14.1481 12.5862C13.8624 12.5862 13.6309 12.3547 13.6309 12.069C13.6309 11.7833 13.8624 11.5518 14.1481 11.5518C14.4338 11.5518 14.6653 11.7833 14.6653 12.069C14.6653 12.3547 14.4338 12.5862 14.1481 12.5862Z" fill="#F0C419"/>
<path d="M16.2172 12.5862C15.9315 12.5862 15.7 12.3547 15.7 12.069C15.7 11.7833 15.9315 11.5518 16.2172 11.5518C16.5029 11.5518 16.7344 11.7833 16.7344 12.069C16.7344 12.3547 16.5029 12.5862 16.2172 12.5862Z" fill="#24AE5F"/>
<path d="M37.4137 13.1031C37.1281 13.1031 36.8965 12.8716 36.8965 12.5859V11.5514C36.8965 11.2658 37.1281 11.0342 37.4137 11.0342C37.6994 11.0342 37.931 11.2658 37.931 11.5514V12.5859C37.931 12.8716 37.6994 13.1031 37.4137 13.1031Z" fill="#BDC3C7"/>
<path d="M37.9311 12.5862H36.8966C36.611 12.5862 36.3794 12.3547 36.3794 12.069C36.3794 11.7833 36.611 11.5518 36.8966 11.5518H37.9311C38.2168 11.5518 38.4484 11.7833 38.4484 12.069C38.4484 12.3547 38.2168 12.5862 37.9311 12.5862Z" fill="#BDC3C7"/>
<path d="M34.8276 12.5862H33.7931C33.5075 12.5862 33.2759 12.3547 33.2759 12.069C33.2759 11.7833 33.5075 11.5518 33.7931 11.5518H34.8276C35.1133 11.5518 35.3449 11.7833 35.3449 12.069C35.3449 12.3547 35.1133 12.5862 34.8276 12.5862Z" fill="#BDC3C7"/>
<path d="M27.5862 16.7236H13.1034C12.8178 16.7236 12.5862 16.9552 12.5862 17.2409V19.3098C12.5862 19.5955 12.8178 19.8271 13.1034 19.8271H27.5862C27.8718 19.8271 28.1034 19.5955 28.1034 19.3098V17.2409C28.1034 16.9552 27.8718 16.7236 27.5862 16.7236Z" fill="#2980BA"/>
<path d="M28.1034 22.4134H13.1034C12.8178 22.4134 12.5862 22.1818 12.5862 21.8962C12.5862 21.6105 12.8178 21.3789 13.1034 21.3789H28.1034C28.3891 21.3789 28.6207 21.6105 28.6207 21.8962C28.6207 22.1818 28.3891 22.4134 28.1034 22.4134Z" fill="#3B97D3"/>
<path d="M26.5517 24.4827H13.1034C12.8178 24.4827 12.5862 24.2512 12.5862 23.9655C12.5862 23.6798 12.8178 23.4482 13.1034 23.4482H26.5517C26.8373 23.4482 27.0689 23.6798 27.0689 23.9655C27.0689 24.2512 26.8373 24.4827 26.5517 24.4827Z" fill="#3B97D3"/>
<path d="M25.5172 26.5521H13.1034C12.8178 26.5521 12.5862 26.3205 12.5862 26.0348C12.5862 25.7492 12.8178 25.5176 13.1034 25.5176H25.5172C25.8029 25.5176 26.0345 25.7492 26.0345 26.0348C26.0345 26.3205 25.8029 26.5521 25.5172 26.5521Z" fill="#3B97D3"/>
<path d="M24.4827 28.6204H13.1034C12.8178 28.6204 12.5862 28.3888 12.5862 28.1032C12.5862 27.8175 12.8178 27.5859 13.1034 27.5859H24.4827C24.7684 27.5859 25 27.8175 25 28.1032C25 28.3888 24.7684 28.6204 24.4827 28.6204Z" fill="#3B97D3"/>
<path d="M26.6189 30.6895H13.1034C12.8178 30.6895 12.5862 30.921 12.5862 31.2067V37.4136C12.5862 37.6992 12.8178 37.9308 13.1034 37.9308H36.8965C37.1822 37.9308 37.4138 37.6992 37.4138 37.4136V31.2067C37.4138 30.921 37.1822 30.6895 36.8965 30.6895H31.3" fill="#3B97D3"/>
<path d="M29.9707 33.1982L26.7121 35.9654C26.5506 36.1019 26.3224 36.1264 26.1357 36.0273C25.949 35.9283 25.8413 35.7256 25.8638 35.5154L26.3138 31.2637C28.4014 31.6149 28.3621 31.5171 29.9707 33.1982V33.1982Z" fill="#F9EAB0"/>
<path d="M33.7103 21.7205L28.3879 31.7756C27.8054 31.4694 27.3994 31.4462 26.3137 31.2636L31.8844 20.748L33.7103 21.7205Z" fill="#F3D55B"/>
<path d="M35.5362 22.6879L29.9707 33.1983C29.5276 32.6378 28.9924 32.1568 28.3879 31.7759L33.7103 21.7207L35.5362 22.6879Z" fill="#F0C419"/>
<path d="M37.2328 19.4858L36.5087 20.8565L32.8518 18.922L33.5759 17.5513C33.7683 17.1867 34.0978 16.9136 34.4918 16.7923C34.8858 16.671 35.3118 16.7115 35.6759 16.9048L36.5863 17.3858C36.9509 17.5782 37.224 17.9077 37.3453 18.3017C37.4666 18.6956 37.4261 19.1217 37.2328 19.4858V19.4858Z" fill="#D75E72"/>
<path d="M36.5087 20.8573L35.5362 22.6884C33.3447 21.5272 34.1837 21.973 31.8845 20.7487L32.8518 18.9229L36.5087 20.8573Z" fill="#BDC3C7"/>
<path d="M15.1723 36.3792H14.1378C13.8522 36.3792 13.6206 36.1476 13.6206 35.862C13.6206 35.5763 13.8522 35.3447 14.1378 35.3447H15.1723C15.458 35.3447 15.6896 35.5763 15.6896 35.862C15.6896 36.1476 15.458 36.3792 15.1723 36.3792Z" fill="#9FC9D3"/>
<path d="M18.2758 36.3792H17.2414C16.9557 36.3792 16.7241 36.1476 16.7241 35.862C16.7241 35.5763 16.9557 35.3447 17.2414 35.3447H18.2758C18.5615 35.3447 18.7931 35.5763 18.7931 35.862C18.7931 36.1476 18.5615 36.3792 18.2758 36.3792Z" fill="#9FC9D3"/>
<path d="M21.3791 36.3792H20.3446C20.059 36.3792 19.8274 36.1476 19.8274 35.862C19.8274 35.5763 20.059 35.3447 20.3446 35.3447H21.3791C21.6648 35.3447 21.8964 35.5763 21.8964 35.862C21.8964 36.1476 21.6648 36.3792 21.3791 36.3792Z" fill="#9FC9D3"/>
<path d="M23.9654 36.3792H23.4481C23.1625 36.3792 22.9309 36.1476 22.9309 35.862C22.9309 35.5763 23.1625 35.3447 23.4481 35.3447H23.9654C24.2511 35.3447 24.4826 35.5763 24.4826 35.862C24.4826 36.1476 24.2511 36.3792 23.9654 36.3792Z" fill="#9FC9D3"/>
<path d="M29.6551 36.3792H29.1378C28.8522 36.3792 28.6206 36.1476 28.6206 35.862C28.6206 35.5763 28.8522 35.3447 29.1378 35.3447H29.6551C29.9408 35.3447 30.1723 35.5763 30.1723 35.862C30.1723 36.1476 29.9408 36.3792 29.6551 36.3792Z" fill="#9FC9D3"/>
<path d="M32.7585 36.3792H31.724C31.4384 36.3792 31.2068 36.1476 31.2068 35.862C31.2068 35.5763 31.4384 35.3447 31.724 35.3447H32.7585C33.0442 35.3447 33.2758 35.5763 33.2758 35.862C33.2758 36.1476 33.0442 36.3792 32.7585 36.3792Z" fill="#9FC9D3"/>
<path d="M35.862 36.3792H34.8275C34.5419 36.3792 34.3103 36.1476 34.3103 35.862C34.3103 35.5763 34.5419 35.3447 34.8275 35.3447H35.862C36.1477 35.3447 36.3793 35.5763 36.3793 35.862C36.3793 36.1476 36.1477 36.3792 35.862 36.3792Z" fill="#9FC9D3"/>
</svg>
