<svg width="55" height="52" viewBox="0 0 55 52" fill="none" xmlns="http://www.w3.org/2000/svg">
<rect width="54.1333" height="52" rx="26" fill="white"/>
<g clip-path="url(#clip0)">
<path d="M36.4898 40.0708C36.4898 41.1365 35.5682 42.0005 34.4315 42.0005H14.1916C13.0549 42.0005 12.1333 41.1365 12.1333 40.0708V15.5642C12.1333 14.4985 13.0549 13.6348 14.1916 13.6348H34.4315C35.5682 13.6348 36.4898 14.4985 36.4898 15.5642V40.0708Z" fill="#AA8452"/>
<path d="M36.4898 15.5642V40.0708C36.4898 41.1367 35.5685 42.0005 34.4315 42.0005H32.3732C33.5101 42.0005 34.4315 41.1367 34.4315 40.0708V15.5642C34.4315 14.4985 33.5101 13.6348 32.3732 13.6348H34.4315C35.5682 13.6348 36.4898 14.4985 36.4898 15.5642V15.5642Z" fill="#7F5C3E"/>
<path d="M34.4315 15.8215C34.4315 15.644 34.2779 15.5 34.0883 15.5H14.4662C14.2766 15.5 14.1229 15.644 14.1229 15.8215V39.7493C14.1229 39.9268 14.2766 40.0708 14.4662 40.0708H34.0886C34.2779 40.0708 34.4315 39.9268 34.4315 39.7493V15.8215Z" fill="white"/>
<path d="M27.2187 13.2803V10.9648C27.2187 10.4319 26.7578 10 26.1896 10H22.4159C21.8476 10 21.387 10.4319 21.387 10.9648V13.2803H27.2187Z" fill="#CCCCCC"/>
<path d="M27.2187 10.9648V13.2803H25.1604V10.9648C25.1604 10.4321 24.7 10 24.1312 10H26.1896C26.7583 10 27.2187 10.4321 27.2187 10.9648Z" fill="#A0A0A0"/>
<path d="M19.1227 12.6377C18.7438 12.6377 18.4368 12.9258 18.4368 13.2808V16.4326C18.4368 16.7878 18.7438 17.0757 19.1227 17.0757H29.4829C29.8618 17.0757 30.1688 16.7878 30.1688 16.4326V13.2808C30.1688 12.9255 29.8618 12.6377 29.4829 12.6377H19.1227Z" fill="#E8E8E8"/>
<path d="M41.6924 18.8289L40.6828 18.2825C40.3549 18.105 39.9354 18.2103 39.7461 18.5179L38.889 19.9097L39.6023 21.0992H41.0862L41.9435 19.7071C42.1328 19.3997 42.0206 19.0064 41.6924 18.8289Z" fill="#DB8733"/>
<path d="M38.5325 19.7171L41.4427 21.2923C41.7706 21.4698 41.8828 21.8629 41.6935 22.1705L41.0078 23.2838L38.1846 22.9918L36.9102 21.066L37.5958 19.9525C37.7854 19.6448 38.2047 19.5396 38.5325 19.7171V19.7171Z" fill="#EDAF54"/>
<path d="M34.1849 34.3625H31.6349L30.0873 32.1448L36.9102 21.0654L41.0079 23.2832L34.1849 34.3625Z" fill="#FFD47D"/>
<path d="M32.7624 36.2039L29.8041 37.49C29.5864 37.5847 29.3351 37.4456 29.3179 37.2212L29.0885 34.2078C29.0689 33.9517 29.1317 33.6958 29.2687 33.4734L30.0871 32.1445L34.1848 34.3623L33.3731 35.6802C33.2319 35.9097 33.0186 36.0923 32.7624 36.2039V36.2039Z" fill="#EDAF54"/>
<path d="M17.2666 36.8755C17.1452 36.8755 17.0231 36.8352 16.9252 36.7537C16.7127 36.5767 16.6934 36.2717 16.8822 36.0728L18.0343 34.8564C18.1999 34.6816 18.438 34.583 18.6877 34.5864C18.9372 34.5898 19.1723 34.6946 19.3327 34.8738L20.1249 35.7595L21.0713 34.7964C21.2335 34.6311 21.463 34.5371 21.702 34.5371H21.7111C21.9533 34.5396 22.1843 34.6384 22.3447 34.8088L23.5234 36.0596C23.7116 36.2593 23.6916 36.564 23.4786 36.7405C23.2656 36.9167 22.9403 36.8979 22.7523 36.6982L21.6994 35.5811L20.7494 36.5479C20.5825 36.718 20.3455 36.8115 20.0989 36.8069C19.8523 36.8015 19.62 36.6968 19.4617 36.5198L18.6718 35.6365L17.6515 36.7134C17.5499 36.8208 17.4088 36.8755 17.2666 36.8755Z" fill="#515759"/>
<path d="M31.5925 20.9668H16.9787C16.6946 20.9668 16.4641 20.751 16.4641 20.4844C16.4641 20.218 16.6946 20.002 16.9787 20.002H31.5925C31.8769 20.002 32.1071 20.2178 32.1071 20.4844C32.1071 20.751 31.8769 20.9668 31.5925 20.9668Z" fill="#515759"/>
<path d="M23.1537 23.5403H17.0474C16.7631 23.5403 16.5326 23.3242 16.5326 23.0576C16.5326 22.7913 16.7631 22.5752 17.0474 22.5752H23.1537C23.4378 22.5752 23.6683 22.7913 23.6683 23.0576C23.6683 23.3242 23.4378 23.5403 23.1537 23.5403Z" fill="#515759"/>
<path d="M27.9563 23.5403H25.555C25.2709 23.5403 25.0404 23.3242 25.0404 23.0576C25.0404 22.7913 25.2709 22.5752 25.555 22.5752H27.9563C28.2404 22.5752 28.4709 22.7913 28.4709 23.0576C28.4709 23.3242 28.2404 23.5403 27.9563 23.5403Z" fill="#515759"/>
<path d="M21.9873 26.1123H17.0474C16.763 26.1123 16.5328 25.8965 16.5328 25.6299C16.5328 25.3633 16.763 25.1475 17.0474 25.1475H21.9873C22.2714 25.1475 22.5018 25.3633 22.5018 25.6299C22.5018 25.8965 22.2714 26.1123 21.9873 26.1123Z" fill="#515759"/>
<path d="M26.5155 26.1123H24.1829C23.8985 26.1123 23.6683 25.8965 23.6683 25.6299C23.6683 25.3633 23.8985 25.1475 24.1829 25.1475H26.5155C26.7998 25.1475 27.0301 25.3633 27.0301 25.6299C27.0301 25.8965 26.7996 26.1123 26.5155 26.1123Z" fill="#515759"/>
<path d="M20.6151 28.6858H17.0474C16.7631 28.6858 16.5326 28.4697 16.5326 28.2031C16.5326 27.9368 16.7631 27.7207 17.0474 27.7207H20.6151C20.8993 27.7207 21.1297 27.9368 21.1297 28.2031C21.1297 28.4697 20.8993 28.6858 20.6151 28.6858Z" fill="#515759"/>
<path d="M26.5154 28.6858H22.8105C22.5264 28.6858 22.2959 28.4697 22.2959 28.2031C22.2959 27.9368 22.5264 27.7207 22.8105 27.7207H26.5154C26.7998 27.7207 27.03 27.9368 27.03 28.2031C27.03 28.4697 26.7995 28.6858 26.5154 28.6858Z" fill="#515759"/>
<path d="M20.6151 31.2588H17.0474C16.7631 31.2588 16.5326 31.043 16.5326 30.7764C16.5326 30.51 16.7631 30.2939 17.0474 30.2939H20.6151C20.8993 30.2939 21.1297 30.5098 21.1297 30.7764C21.1297 31.0427 20.8993 31.2588 20.6151 31.2588Z" fill="#515759"/>
<path d="M30.169 13.2808V16.4326C30.169 16.7876 29.8614 17.0757 29.4828 17.0757H27.4244C27.8033 17.0757 28.1106 16.7876 28.1106 16.4326V13.2808C28.1106 12.9258 27.8033 12.6377 27.4244 12.6377H29.4828C29.8614 12.6377 30.169 12.9258 30.169 13.2808Z" fill="#CCCCCC"/>
<path d="M41.6938 22.1699L41.0081 23.2832L39.2256 22.3186L39.9113 21.2051C40.1006 20.8975 39.9883 20.5046 39.6605 20.3271L41.443 21.292C41.7709 21.4695 41.8831 21.8623 41.6938 22.1699V22.1699Z" fill="#DB8733"/>
<path d="M32.4019 33.3984L39.225 22.3193L41.0076 23.2842L34.1841 34.3633L32.4019 33.3984Z" fill="#E89E46"/>
<path d="M34.1849 34.3623L33.3732 35.6804C33.232 35.9092 33.0187 36.0923 32.7622 36.2039L29.8044 37.4897C29.587 37.5845 29.3349 37.4458 29.3177 37.2212L29.225 36.002L30.9797 35.239C31.2362 35.1274 31.4495 34.9443 31.5906 34.7156L32.4021 33.3975L34.1849 34.3623Z" fill="#DB8733"/>
</g>
<defs>
<clipPath id="clip0">
<rect width="34.1333" height="32" fill="white" transform="translate(10 10)"/>
</clipPath>
</defs>
</svg>
