<svg width="50" height="50" viewBox="0 0 50 50" fill="none" xmlns="http://www.w3.org/2000/svg">
<rect width="50" height="50" rx="25" fill="white"/>
<path d="M34.8342 38.191C34.8342 39.1901 33.9702 40.0001 32.9045 40.0001H13.9297C12.864 40.0001 12 39.1901 12 38.191V15.2161C12 14.217 12.864 13.4072 13.9297 13.4072H32.9045C33.9702 13.4072 34.8342 14.217 34.8342 15.2161V38.191Z" fill="#AA8452"/>
<path d="M34.8342 15.2161V38.191C34.8342 39.1903 33.9705 40.0001 32.9045 40.0001H30.9749C32.0408 40.0001 32.9045 39.1903 32.9045 38.191V15.2161C32.9045 14.217 32.0408 13.4072 30.9749 13.4072H32.9045C33.9702 13.4072 34.8342 14.217 34.8342 15.2161Z" fill="#7F5C3E"/>
<path d="M32.9045 15.4577C32.9045 15.2913 32.7605 15.1562 32.5828 15.1562H14.187C14.0093 15.1562 13.8652 15.2913 13.8652 15.4577V37.8899C13.8652 38.0563 14.0093 38.1914 14.187 38.1914H32.583C32.7605 38.1914 32.9045 38.0563 32.9045 37.8899V15.4577Z" fill="white"/>
<path d="M26.1426 13.0753V10.9045C26.1426 10.4049 25.7104 10 25.1777 10H21.6399C21.1072 10 20.6753 10.4049 20.6753 10.9045V13.0753H26.1426Z" fill="#CCCCCC"/>
<path d="M26.1426 10.9045V13.0753H24.2129V10.9045C24.2129 10.4051 23.7812 10 23.248 10H25.1777C25.7109 10 26.1426 10.4051 26.1426 10.9045Z" fill="#A0A0A0"/>
<path d="M18.5525 12.4727C18.1973 12.4727 17.9094 12.7427 17.9094 13.0755V16.0304C17.9094 16.3634 18.1973 16.6333 18.5525 16.6333H28.2651C28.6204 16.6333 28.9082 16.3634 28.9082 16.0304V13.0755C28.9082 12.7425 28.6204 12.4727 28.2651 12.4727H18.5525Z" fill="#E8E8E8"/>
<path d="M39.7117 18.2767L38.7651 17.7644C38.4578 17.598 38.0645 17.6967 37.887 17.9851L37.0835 19.2899L37.7522 20.4051H39.1433L39.947 19.1C40.1245 18.8118 40.0193 18.4431 39.7117 18.2767Z" fill="#DB8733"/>
<path d="M36.7493 19.1092L39.4775 20.5859C39.7849 20.7523 39.8901 21.1208 39.7126 21.4092L39.0698 22.4529L36.4231 22.1792L35.2283 20.3737L35.8711 19.3298C36.0488 19.0414 36.4419 18.9428 36.7493 19.1092Z" fill="#EDAF54"/>
<path d="M32.6733 32.8401H30.2827L28.8318 30.7609L35.2283 20.374L39.0698 22.4532L32.6733 32.8401Z" fill="#FFD47D"/>
<path d="M31.3397 34.5664L28.5663 35.7721C28.3622 35.8609 28.1266 35.7305 28.1104 35.5201L27.8954 32.695C27.8771 32.4549 27.9359 32.2151 28.0643 32.0065L28.8316 30.7607L32.6732 32.8399L31.9122 34.0754C31.7799 34.2906 31.5799 34.4618 31.3397 34.5664Z" fill="#EDAF54"/>
<path d="M16.8123 35.1961C16.6986 35.1961 16.5841 35.1584 16.4923 35.0819C16.2931 34.916 16.275 34.6301 16.452 34.4436L17.5321 33.3033C17.6873 33.1394 17.9105 33.0469 18.1446 33.0501C18.3785 33.0533 18.599 33.1515 18.7493 33.3195L19.492 34.1499L20.3792 33.247C20.5313 33.092 20.7464 33.0039 20.9705 33.0039H20.9791C21.2061 33.0062 21.4227 33.0989 21.5731 33.2587L22.6781 34.4312C22.8546 34.6184 22.8358 34.9041 22.6361 35.0696C22.4364 35.2348 22.1314 35.2172 21.9552 35.03L20.9681 33.9826L20.0775 34.889C19.921 35.0485 19.6988 35.1362 19.4676 35.1318C19.2364 35.1268 19.0186 35.0286 18.8702 34.8627L18.1297 34.0346L17.1732 35.0442C17.078 35.1449 16.9456 35.1961 16.8123 35.1961Z" fill="#515759"/>
<path d="M30.2429 20.2815H16.5425C16.2761 20.2815 16.0601 20.0792 16.0601 19.8292C16.0601 19.5795 16.2761 19.377 16.5425 19.377H30.2429C30.5095 19.377 30.7253 19.5793 30.7253 19.8292C30.7253 20.0792 30.5095 20.2815 30.2429 20.2815Z" fill="#515759"/>
<path d="M22.3315 22.6938H16.6069C16.3403 22.6938 16.1243 22.4913 16.1243 22.2413C16.1243 21.9916 16.3403 21.7891 16.6069 21.7891H22.3315C22.5979 21.7891 22.814 21.9916 22.814 22.2413C22.814 22.4913 22.5979 22.6938 22.3315 22.6938Z" fill="#515759"/>
<path d="M26.834 22.6938H24.5828C24.3164 22.6938 24.1003 22.4913 24.1003 22.2413C24.1003 21.9916 24.3164 21.7891 24.5828 21.7891H26.834C27.1003 21.7891 27.3164 21.9916 27.3164 22.2413C27.3164 22.4913 27.1003 22.6938 26.834 22.6938Z" fill="#515759"/>
<path d="M21.238 25.1057H16.6069C16.3403 25.1057 16.1245 24.9034 16.1245 24.6534C16.1245 24.4035 16.3403 24.2012 16.6069 24.2012H21.238C21.5044 24.2012 21.7205 24.4035 21.7205 24.6534C21.7205 24.9034 21.5044 25.1057 21.238 25.1057Z" fill="#515759"/>
<path d="M25.4832 25.1057H23.2964C23.0298 25.1057 22.814 24.9034 22.814 24.6534C22.814 24.4035 23.0298 24.2012 23.2964 24.2012H25.4832C25.7498 24.2012 25.9656 24.4035 25.9656 24.6534C25.9656 24.9034 25.7495 25.1057 25.4832 25.1057Z" fill="#515759"/>
<path d="M19.9517 27.5181H16.6069C16.3403 27.5181 16.1243 27.3155 16.1243 27.0656C16.1243 26.8158 16.3403 26.6133 16.6069 26.6133H19.9517C20.218 26.6133 20.4341 26.8158 20.4341 27.0656C20.4341 27.3155 20.218 27.5181 19.9517 27.5181Z" fill="#515759"/>
<path d="M25.4832 27.5181H22.0098C21.7434 27.5181 21.5273 27.3155 21.5273 27.0656C21.5273 26.8158 21.7434 26.6133 22.0098 26.6133H25.4832C25.7498 26.6133 25.9656 26.8158 25.9656 27.0656C25.9656 27.3155 25.7495 27.5181 25.4832 27.5181Z" fill="#515759"/>
<path d="M19.9517 29.9299H16.6069C16.3403 29.9299 16.1243 29.7276 16.1243 29.4777C16.1243 29.228 16.3403 29.0254 16.6069 29.0254H19.9517C20.218 29.0254 20.4341 29.2277 20.4341 29.4777C20.4341 29.7274 20.218 29.9299 19.9517 29.9299Z" fill="#515759"/>
<path d="M28.9084 13.0755V16.0304C28.9084 16.3632 28.6201 16.6333 28.2651 16.6333H26.3354C26.6907 16.6333 26.9788 16.3632 26.9788 16.0304V13.0755C26.9788 12.7427 26.6907 12.4727 26.3354 12.4727H28.2651C28.6201 12.4727 28.9084 12.7427 28.9084 13.0755Z" fill="#CCCCCC"/>
<path d="M39.7129 21.4092L39.0701 22.4529L37.3989 21.5486L38.0417 20.5047C38.2192 20.2163 38.114 19.848 37.8066 19.6816L39.4778 20.5862C39.7851 20.7526 39.8904 21.1209 39.7129 21.4092Z" fill="#DB8733"/>
<path d="M31.0017 31.9365L37.3984 21.5498L39.0696 22.4543L32.6726 32.841L31.0017 31.9365Z" fill="#E89E46"/>
<path d="M32.6733 32.8401L31.9124 34.0758C31.78 34.2903 31.5801 34.4619 31.3396 34.5665L28.5667 35.7721C28.3628 35.8609 28.1265 35.7309 28.1104 35.5203L28.0234 34.3773L29.6685 33.662C29.9089 33.5574 30.1089 33.3857 30.2412 33.1713L31.002 31.9355L32.6733 32.8401Z" fill="#DB8733"/>
</svg>
