<svg width="36" height="36" viewBox="0 0 36 36" fill="none" xmlns="http://www.w3.org/2000/svg">
<path d="M0 18C0 8.05888 8.05888 0 18 0C27.9411 0 36 8.05888 36 18C36 27.9411 27.9411 36 18 36C8.05888 36 0 27.9411 0 18Z" fill="#E6F7FF"/>
<path d="M20.6995 18.4794C19.9796 17.3562 18.7534 16.6855 17.4194 16.6855C16.0855 16.6855 14.8592 17.3562 14.1393 18.4794L12.4045 21.1858C12.1166 21.6349 11.9838 22.1536 12.0203 22.6857C12.0568 23.2179 12.2593 23.7135 12.6059 24.1191C12.9527 24.5247 13.4109 24.8018 13.9311 24.9207C14.4512 25.0394 14.9844 24.9888 15.473 24.774L15.5048 24.7599C16.7342 24.23 18.1393 24.2347 19.3657 24.774C19.6819 24.9131 20.017 24.9834 20.3552 24.9834C20.539 24.9834 20.7239 24.9625 20.9072 24.9208C21.4273 24.802 21.8856 24.5249 22.2325 24.1194C22.5792 23.7139 22.7818 23.2181 22.8184 22.6859C22.855 22.1536 22.7222 21.6349 22.4344 21.1857L20.6995 18.4794ZM21.5197 23.5098C21.0784 24.0256 20.3646 24.1887 19.7432 23.9155C19.0047 23.5907 18.212 23.4283 17.419 23.4283C16.6268 23.4283 15.8342 23.5906 15.0961 23.915L15.0751 23.9243C14.4586 24.1851 13.7552 24.0199 13.3188 23.5098C12.878 22.9938 12.8278 22.2633 13.194 21.6919L14.929 18.9855C15.4756 18.1327 16.4066 17.6235 17.4194 17.6235C18.4322 17.6235 19.3632 18.1327 19.91 18.9855L21.6447 21.6918C22.011 22.2634 21.9608 22.994 21.5197 23.5098Z" fill="black"/>
<path d="M12.8717 18.4766C13.3878 18.2783 13.7799 17.8624 13.9758 17.3054C14.1621 16.7754 14.1469 16.177 13.9326 15.6204C13.7183 15.0641 13.3284 14.61 12.8349 14.3415C12.3162 14.0597 11.7465 14.0138 11.2312 14.2124C10.1946 14.611 9.71889 15.892 10.1709 17.0686C10.532 18.0051 11.3742 18.5963 12.2256 18.5963C12.443 18.5963 12.661 18.5577 12.8717 18.4766ZM11.0462 16.7317C10.7798 16.0383 11.0138 15.3008 11.5681 15.0876C11.6682 15.0491 11.7741 15.0299 11.8821 15.0299C12.0488 15.0299 12.2211 15.0754 12.3869 15.1656C12.6849 15.3276 12.9231 15.6089 13.0574 15.9574C13.1915 16.3062 13.2035 16.6743 13.091 16.9943C12.9878 17.2875 12.7904 17.5031 12.5353 17.6011L12.5348 17.6013C11.9812 17.8147 11.3134 17.4244 11.0462 16.7317Z" fill="black"/>
<path d="M16.2379 16.3558C17.5338 16.3558 18.5881 15.1547 18.5881 13.6782C18.5881 12.2014 17.5338 11 16.2379 11C14.9421 11 13.8879 12.2014 13.8879 13.6782C13.8879 15.1547 14.9421 16.3558 16.2379 16.3558ZM16.2379 11.9379C17.0166 11.9379 17.6503 12.7186 17.6503 13.6782C17.6503 14.6375 17.0166 15.418 16.2379 15.418C15.4592 15.418 14.8258 14.6375 14.8258 13.6782C14.8258 12.7186 15.4592 11.9379 16.2379 11.9379Z" fill="black"/>
<path d="M20.297 17.0135H20.2971C20.4965 17.0797 20.6999 17.1113 20.9024 17.1113C21.8474 17.1113 22.7685 16.4235 23.1199 15.3663C23.3223 14.7578 23.309 14.1144 23.0824 13.5547C22.8454 12.9689 22.406 12.5436 21.8452 12.3571C21.2844 12.1708 20.6776 12.2484 20.137 12.5758C19.6205 12.8887 19.2248 13.396 19.0227 14.0045C18.5961 15.2882 19.1678 16.6381 20.297 17.0135ZM19.9127 14.3003C20.0447 13.903 20.2969 13.5756 20.623 13.3781C20.9246 13.1953 21.2537 13.1488 21.5495 13.2471C21.8451 13.3455 22.0807 13.5796 22.213 13.9065C22.356 14.2598 22.3621 14.6731 22.2299 15.0704C21.9663 15.8634 21.232 16.3358 20.5929 16.1235C19.9544 15.9111 19.6492 15.0933 19.9127 14.3003Z" fill="black"/>
<path d="M25.2459 16.7014L25.2456 16.7011C24.3519 16.0409 23.0153 16.3271 22.266 17.3393C21.5173 18.3519 21.6344 19.7134 22.5267 20.374C22.8521 20.6151 23.2367 20.7304 23.6302 20.7304C24.3161 20.7304 25.0297 20.3803 25.5067 19.7365C26.2553 18.7238 26.1384 17.3623 25.2459 16.7014ZM24.7529 19.1785C24.3104 19.7758 23.5622 19.9739 23.0848 19.6203C22.6078 19.2671 22.5787 18.4939 23.02 17.897C23.3133 17.5008 23.7418 17.2803 24.1367 17.2803C24.3364 17.2803 24.5275 17.3367 24.6882 17.4555C25.1649 17.809 25.1938 18.5819 24.7529 19.1785Z" fill="black"/>
</svg>
