<svg width="40" height="49" viewBox="0 0 40 49" fill="none" xmlns="http://www.w3.org/2000/svg">
<path fill-rule="evenodd" clip-rule="evenodd" d="M8.23474 9.72605C9.34993 9.00134 10.5953 8.4032 11.9375 7.95853C11.4624 7.47767 10.9732 7.02615 10.4717 6.61636C10.1509 6.35422 9.45747 5.83718 8.83279 5.50098C8.60328 6.27097 8.44681 7.24788 8.38859 7.72255C8.30815 8.37901 8.25855 9.04925 8.23474 9.72605Z" fill="#FF7D97"/>
<path fill-rule="evenodd" clip-rule="evenodd" d="M8.23486 9.72587C8.25868 9.04906 8.30827 8.37882 8.38871 7.72236C8.44693 7.24769 8.60341 6.27069 8.83291 5.50079C9.45759 5.83689 10.1511 6.35404 10.4718 6.61617C10.9733 7.02596 11.4625 7.47757 11.9376 7.95834C13.2793 7.51386 14.718 7.22266 16.2207 7.11156C11.9245 2.00577 8.67578 1.02643 7.1732 1.56813C5.5404 2.15671 4.1026 6.25447 4.55806 13.2198C5.5028 11.8737 6.75422 10.6881 8.23486 9.72587Z" fill="white"/>
<path fill-rule="evenodd" clip-rule="evenodd" d="M28.0222 1.56813C26.5195 1.02643 23.2709 2.00577 18.9747 7.11156C20.4774 7.22275 21.916 7.51386 23.2577 7.95834C23.7328 7.47748 24.222 7.02596 24.7235 6.61617C25.0443 6.35404 25.7377 5.83699 26.3625 5.50079C26.592 6.27078 26.7485 7.24769 26.8067 7.72236C26.8872 8.37892 26.9368 9.04916 26.9605 9.72596C28.4413 10.6882 29.6926 11.8738 30.6373 13.2199C31.0928 6.25438 29.655 2.15671 28.0222 1.56813Z" fill="white"/>
<path fill-rule="evenodd" clip-rule="evenodd" d="M26.3623 5.50098C25.7376 5.83708 25.0441 6.35422 24.7233 6.61636C24.2218 7.02615 23.7326 7.47776 23.2574 7.95853C24.5998 8.4032 25.8451 9.00134 26.9603 9.72615C26.9365 9.04934 26.8869 8.3791 26.8065 7.72255C26.7483 7.24788 26.5918 6.27097 26.3623 5.50098Z" fill="#FF7D97"/>
<path fill-rule="evenodd" clip-rule="evenodd" d="M23.2572 7.95893C21.9156 7.51444 20.4769 7.22325 18.9743 7.11215C18.5208 7.07868 18.0615 7.06152 17.5973 7.06152C17.1331 7.06152 16.6738 7.07868 16.2203 7.11215C14.7177 7.22325 13.279 7.51444 11.9373 7.95893C10.595 8.4036 9.34974 9.00174 8.23455 9.72646C6.75391 10.6887 5.50249 11.8743 4.55774 13.2204C3.30979 14.9983 2.5968 17.0562 2.5968 19.2494C2.5968 21.8423 3.5933 24.246 5.29211 26.2217C8.00354 29.3749 12.504 31.4374 17.5973 31.4374C21.8293 31.4374 25.6517 30.0132 28.3789 27.7228V26.6907C27.5702 26.4826 26.9726 25.7484 26.9726 24.8747V22.9996C26.9726 20.9371 28.6602 19.2495 30.7227 19.2495H32.5978C32.5978 17.0563 31.8848 14.9984 30.6369 13.2204C29.6921 11.8744 28.4408 10.6889 26.9601 9.72655C25.8449 9.00174 24.5995 8.4036 23.2572 7.95893Z" fill="white"/>
<path fill-rule="evenodd" clip-rule="evenodd" d="M30.7225 19.25C28.66 19.25 26.9724 20.9376 26.9724 23.0001V24.8752C26.9724 25.7489 27.57 26.4831 28.3787 26.6912C28.5285 26.7297 28.6856 26.7503 28.8475 26.7503C29.8831 26.7503 30.7225 25.9108 30.7225 24.8752C30.7225 25.9108 31.562 26.7503 32.5976 26.7503C33.6324 26.7503 34.4715 25.9119 34.4727 24.8773C34.4738 25.9119 35.3128 26.7503 36.3477 26.7503C36.5096 26.7503 36.6667 26.7297 36.8165 26.6912C37.6252 26.4831 38.2228 25.7489 38.2228 24.8752V23.0001C38.2228 20.9376 36.5352 19.25 34.4727 19.25H32.5976H30.7225Z" fill="white"/>
<path fill-rule="evenodd" clip-rule="evenodd" d="M30.7225 24.875C30.7225 25.9106 29.883 26.7501 28.8474 26.7501C28.6855 26.7501 28.5285 26.7295 28.3787 26.691V27.7231V32.2895V39.594C28.3787 41.9143 30.2772 43.8128 32.5976 43.8128C32.7548 43.8128 32.91 43.8041 33.0629 43.7872C35.1665 43.5537 36.8164 41.7572 36.8164 39.594V26.691C36.6666 26.7295 36.5095 26.7501 36.3477 26.7501C35.3128 26.7501 34.4737 25.9117 34.4726 24.8771C34.4715 25.9117 33.6324 26.7501 32.5976 26.7501C31.562 26.7501 30.7225 25.9106 30.7225 24.875Z" fill="white"/>
<path fill-rule="evenodd" clip-rule="evenodd" d="M28.3789 32.2882V27.7219C25.6517 30.0123 21.8293 31.4365 17.5973 31.4365C12.5039 31.4365 8.00351 29.3739 5.29208 26.2207C3.94119 27.5716 3.89535 30.2813 5.5439 31.4573C8.90739 33.8566 13.1717 35.1865 17.5973 35.1865C21.4822 35.1866 25.2427 34.1617 28.3789 32.2882Z" fill="#FF5A58"/>
<path d="M17.5976 43.6242C19.151 43.6242 20.4102 42.365 20.4102 40.8116C20.4102 39.2583 19.151 37.999 17.5976 37.999C16.0443 37.999 14.785 39.2583 14.785 40.8116C14.785 42.365 16.0443 43.6242 17.5976 43.6242Z" fill="#FFC144"/>
<path fill-rule="evenodd" clip-rule="evenodd" d="M17.5975 37.9999C19.1508 37.9999 20.4101 39.2592 20.4101 40.8125C20.4101 42.3658 19.1508 43.6251 17.5975 43.6251C16.0441 43.6251 14.7849 42.3658 14.7849 40.8125C14.7849 39.2592 16.0442 37.9999 17.5975 37.9999ZM28.3791 32.2888C25.2429 34.1623 21.4824 35.1872 17.5975 35.1872C13.1718 35.1872 8.90758 33.8573 5.54409 31.458C2.66287 34.3392 -0.229788 40.8319 3.656 47.5624H31.5389C32.275 46.2875 32.7675 45.0212 33.0633 43.7865C32.9104 43.8035 32.7552 43.8122 32.598 43.8122C30.2776 43.8122 28.3791 41.9137 28.3791 39.5933V32.2888Z" fill="white"/>
<path d="M34.4729 18.3115H33.4946C33.3332 16.4087 32.6828 14.588 31.5925 12.9487C31.973 6.34502 30.6999 1.53708 28.3398 0.686363C27.2359 0.288381 25.7456 0.53289 24.1438 1.37461C22.3748 2.30426 20.4992 3.91072 18.5657 6.14823C18.2445 6.13248 17.9217 6.12358 17.5974 6.12358C17.273 6.12358 16.9503 6.13248 16.6291 6.14823C14.6956 3.91072 12.82 2.30417 11.0511 1.37461C9.44936 0.532796 7.95925 0.288194 6.85512 0.686363C4.49488 1.53717 3.22181 6.3453 3.60245 12.9492C2.33378 14.8563 1.65941 17.0077 1.65941 19.249C1.65941 21.7621 2.50704 24.1618 4.08987 26.2311C3.53466 27.0928 3.27187 28.1801 3.37678 29.2679C3.45919 30.1229 3.75752 30.8858 4.23706 31.4939C2.75436 33.235 1.64498 35.5098 1.14518 37.8724C0.416061 41.3188 0.999205 44.8227 2.83095 48.0075C2.8318 48.009 2.83264 48.0104 2.83348 48.0119C2.83714 48.0182 2.84052 48.0246 2.84417 48.0309C2.84689 48.0356 2.85027 48.0396 2.85308 48.0442C2.86911 48.0709 2.88646 48.0966 2.90502 48.1215C2.91121 48.1298 2.91711 48.1382 2.92349 48.1462C2.94599 48.1743 2.96961 48.2015 2.99521 48.2269C3.00196 48.2335 3.00918 48.2394 3.01612 48.2458C3.03609 48.2646 3.0568 48.2825 3.07837 48.2994C3.08859 48.3074 3.0989 48.3151 3.1094 48.3227C3.13143 48.3385 3.15412 48.3534 3.17756 48.3672C3.18534 48.3718 3.19284 48.3769 3.20072 48.3813C3.23278 48.3992 3.26597 48.4152 3.30019 48.4293C3.30506 48.4313 3.31003 48.4328 3.31491 48.4346C3.34435 48.4462 3.37444 48.4561 3.40519 48.4646C3.41466 48.4673 3.42413 48.4696 3.43369 48.472C3.4606 48.4785 3.48798 48.4838 3.51573 48.488C3.52595 48.4896 3.53616 48.4915 3.54648 48.4927C3.57967 48.4965 3.61332 48.4989 3.64745 48.4992C3.65073 48.4992 3.65401 48.4999 3.65729 48.4999C3.65823 48.4999 3.65917 48.4997 3.66011 48.4997H31.5393C31.8742 48.4997 32.1837 48.3211 32.3512 48.0309C32.9905 46.9238 33.4822 45.7728 33.8176 44.6026C36.0741 44.0532 37.7546 42.0163 37.7546 39.5931V27.3084C38.5945 26.8214 39.1609 25.913 39.1609 24.8742V22.9991C39.1606 20.4144 37.0577 18.3115 34.4729 18.3115ZM37.2855 22.9991V24.8742C37.2855 25.3912 36.8649 25.8117 36.348 25.8117C35.8316 25.8117 35.4111 25.3916 35.4104 24.8752C35.4099 24.3578 34.9903 23.9388 34.4729 23.9388C33.9555 23.9388 33.5359 24.358 33.5354 24.8753C33.5348 25.3917 33.1142 25.8117 32.5978 25.8117C32.0846 25.8117 31.6663 25.3971 31.6604 24.8852C31.6604 24.8815 31.6604 24.8779 31.6604 24.8743H31.6603C31.6603 24.8742 31.6603 24.8742 31.6603 24.8741C31.6603 24.3564 31.2405 23.9367 30.7228 23.9367C30.205 23.9367 29.7853 24.3565 29.7853 24.8742C29.7853 25.3912 29.3648 25.8117 28.8478 25.8117C28.3308 25.8117 27.9102 25.3912 27.9102 24.8742V22.9991C27.9102 21.4483 29.1719 20.1865 30.7228 20.1865H34.4729C36.0238 20.1865 37.2855 21.4483 37.2855 22.9991ZM27.7039 2.45023C28.4273 2.71096 29.8049 5.16879 29.7854 10.7838C29.4617 10.4687 29.1189 10.164 28.7563 9.87145C28.471 9.64129 28.1768 9.42106 27.8747 9.21077C27.8451 8.65885 27.7997 8.12061 27.7368 7.60825C27.7202 7.47306 27.566 6.25774 27.2605 5.23302C27.18 4.96282 26.982 4.74325 26.7217 4.63506C26.4616 4.52715 26.1662 4.54168 25.9178 4.67528C25.0613 5.13617 24.2227 5.81438 24.13 5.89032C23.7584 6.19389 23.3804 6.53112 23.0025 6.89413C22.3064 6.68834 21.5917 6.52278 20.8631 6.39855C24.4005 2.64684 26.8492 2.14216 27.7039 2.45023ZM25.898 8.03661C25.6016 7.88745 25.3003 7.74607 24.9935 7.61369C25.1017 7.52022 25.2094 7.42965 25.3162 7.34237C25.4149 7.26183 25.5668 7.14342 25.7482 7.01067C25.8082 7.3433 25.8516 7.64041 25.8756 7.83663C25.8838 7.90226 25.8906 7.96995 25.898 8.03661ZM7.49086 2.45023C8.34542 2.14254 10.7943 2.64712 14.3316 6.39837C13.6027 6.52259 12.888 6.68797 12.1919 6.89376C11.8142 6.53093 11.4364 6.19389 11.0648 5.89032C10.9721 5.81447 10.1338 5.13636 9.27686 4.67528C9.0285 4.54168 8.73337 4.52696 8.47292 4.63515C8.21257 4.74325 8.01466 4.96291 7.93412 5.23311C7.62868 6.25811 7.47436 7.47315 7.45776 7.60834C7.39495 8.1207 7.34938 8.65913 7.31985 9.21115C7.0039 9.43109 6.69649 9.66154 6.39901 9.90314C6.05072 10.1861 5.72127 10.4804 5.40916 10.7841C5.38985 5.16898 6.76746 2.71106 7.49086 2.45023ZM10.2011 7.61359C9.89441 7.74597 9.59308 7.88717 9.29682 8.03633C9.30433 7.96986 9.31108 7.90226 9.31904 7.83673C9.34314 7.64041 9.38645 7.3433 9.44645 7.01067C9.62796 7.14342 9.77993 7.26183 9.87838 7.34227C9.98525 7.42956 10.0929 7.52012 10.2011 7.61359ZM17.5974 7.99864C24.9365 7.99864 31.0122 12.5514 31.6117 18.3115H30.7227C28.1379 18.3115 26.035 20.4144 26.035 22.9991V24.8742C26.035 25.903 26.5906 26.804 27.4171 27.2944C24.7739 29.3637 21.3045 30.4994 17.5973 30.4994C9.84294 30.4994 3.53429 25.4525 3.53429 19.249C3.53429 13.0456 9.84303 7.99864 17.5974 7.99864ZM30.986 46.6247H4.20969C1.05152 40.6623 3.53776 35.2316 5.68799 32.6876C6.09328 32.9512 6.51011 33.2037 6.93687 33.4391C7.0805 33.5183 7.23576 33.5559 7.38885 33.5559C7.71924 33.5559 8.03969 33.3809 8.2106 33.071C8.46064 32.6176 8.29592 32.0473 7.84253 31.7973C7.23266 31.4608 6.64249 31.0898 6.08841 30.6946C5.44329 30.2343 5.28185 29.4905 5.24303 29.088C5.19784 28.6192 5.26497 28.1455 5.42416 27.728C5.73196 28.0266 6.05644 28.3163 6.3992 28.5947C9.39902 31.0321 13.3759 32.3744 17.5974 32.3744C21.2175 32.3744 24.647 31.3915 27.4414 29.5787V31.7474C24.5133 33.3852 21.1185 34.2495 17.5974 34.2495C16.904 34.2495 16.2017 34.2146 15.5103 34.1459C14.9941 34.0944 14.5357 34.4709 14.4846 34.9861C14.4334 35.5013 14.8095 35.9606 15.3248 36.0118C15.7672 36.0558 16.2136 36.0854 16.6598 36.1037V37.1809C15.0442 37.5983 13.8472 39.0681 13.8472 40.8123C13.8472 42.8801 15.5295 44.5625 17.5974 44.5625C19.6652 44.5625 21.3475 42.8801 21.3475 40.8123C21.3475 39.0681 20.1505 37.5982 18.5349 37.1809V36.105C21.6829 35.9781 24.7214 35.214 27.4414 33.8665V39.5932C27.4414 42.1734 29.3465 44.3168 31.8239 44.6914C31.6003 45.345 31.3209 45.9914 30.986 46.6247ZM17.5974 38.9373C18.6314 38.9373 19.4725 39.7784 19.4725 40.8123C19.4725 41.8462 18.6314 42.6874 17.5974 42.6874C16.5635 42.6874 15.7224 41.8462 15.7224 40.8123C15.7224 39.7784 16.5635 38.9373 17.5974 38.9373ZM32.5978 42.8745C30.7885 42.8745 29.3165 41.4025 29.3165 39.5932V27.6469C29.8512 27.5569 30.3354 27.316 30.7228 26.9688C31.2208 27.4151 31.8782 27.6868 32.5978 27.6868C33.3173 27.6868 33.9749 27.4149 34.4729 26.9686C34.8604 27.3159 35.3446 27.5568 35.8792 27.6469V39.5932C35.8792 41.4025 34.4072 42.8745 32.5978 42.8745Z" fill="black"/>
<path d="M22.2856 20.6553C23.0622 20.6553 23.6918 20.0256 23.6918 19.249C23.6918 18.4724 23.0622 17.8428 22.2856 17.8428H22.2849C21.5083 17.8428 20.879 18.4724 20.879 19.249C20.879 20.0256 21.5089 20.6553 22.2856 20.6553Z" fill="black"/>
<path d="M12.91 20.6553C13.6866 20.6553 14.3162 20.0256 14.3162 19.249C14.3162 18.4724 13.6866 17.8428 12.91 17.8428H12.9093C12.1327 17.8428 11.5034 18.4724 11.5034 19.249C11.5034 20.0256 12.1333 20.6553 12.91 20.6553Z" fill="black"/>
<path d="M13.3385 24.324C13.0796 24.7725 13.2333 25.3459 13.6817 25.6047C14.5462 26.1038 16.3317 26.2702 17.5975 25.2778C18.2651 25.8011 19.0771 26.0023 19.8223 26.0023C20.4903 26.0023 21.1048 25.8407 21.5134 25.6048C21.9618 25.346 22.1155 24.7726 21.8565 24.3241C21.5977 23.8758 21.0246 23.7222 20.5759 23.981C20.3496 24.1114 19.1686 24.376 18.535 23.581V21.6493C18.6352 21.6139 18.7461 21.5866 18.8717 21.5674C19.3835 21.489 19.7349 21.0106 19.6565 20.4987C19.5781 19.9869 19.0999 19.636 18.5878 19.714C18.2272 19.7692 17.8961 19.8686 17.5976 20.011C17.2991 19.8686 16.9681 19.7693 16.6074 19.714C16.0956 19.6358 15.6172 19.987 15.5387 20.4987C15.4603 21.0106 15.8116 21.489 16.3235 21.5674C16.4491 21.5866 16.56 21.6139 16.6601 21.6493V23.581C16.0264 24.3761 14.8454 24.1114 14.6192 23.981C14.1708 23.7222 13.5974 23.8755 13.3385 24.324Z" fill="black"/>
<path d="M11.2794 33.3174H11.2787C10.7609 33.3174 10.3416 33.7372 10.3416 34.2549C10.3416 34.7726 10.7616 35.1924 11.2794 35.1924C11.7972 35.1924 12.2169 34.7726 12.2169 34.2549C12.2169 33.7372 11.7972 33.3174 11.2794 33.3174Z" fill="black"/>
</svg>
