<svg width="44" height="44" viewBox="0 0 44 44" fill="none" xmlns="http://www.w3.org/2000/svg">
<rect width="44" height="44" rx="22" fill="white"/>
<path d="M30.8943 24.4317C30.7296 24.1602 30.4638 23.9701 30.1461 23.8962L23.8304 22.4364C23.1993 22.2916 22.5573 22.6662 22.4009 23.2741L22.0829 24.5086L22.0353 24.6286C22.8614 24.6481 23.5 25.3092 23.5 26.1256C23.5 26.954 22.8434 27.6256 22 27.6256H22.75C23.8045 27.6256 24.625 28.4652 24.625 29.5006C24.625 29.9892 24.4379 30.4302 24.1338 30.764L28.1478 31.7334C28.24 31.7547 28.3323 31.7649 28.4234 31.7649C28.9566 31.7649 29.4441 31.415 29.5773 30.896L31.0218 25.286C31.0968 24.9942 31.0518 24.6912 30.8943 24.4317Z" fill="#1890FF" fill-opacity="0.5"/>
<path d="M32.4948 22.9153C32.1055 22.2744 31.4766 21.8259 30.7236 21.6515L29.9624 21.4756L32.3312 13.7004C32.5128 12.9958 32.3939 12.2698 31.9982 11.6596C31.6105 11.0488 30.9936 10.6198 30.262 10.4503C28.7598 10.1038 27.2372 10.9858 26.8645 12.4344L25.1882 20.3724L24.4079 20.192C22.9274 19.8523 21.4304 20.7035 21.0336 22.0989C20.8682 22.0374 20.6897 21.9995 20.5 21.9995H19.8632C19.5955 21.3384 18.7109 19.7495 16.375 19.7495L15.769 19.751L16.0401 20.2933C16.1286 20.471 16.2411 20.8554 16.1121 20.9818C16.0416 21.0515 15.8605 21.1261 15.6858 21.1981C15.1971 21.3999 14.4588 21.7048 14.1449 22.6288C13.9956 23.0679 13.9705 23.7193 14.332 24.2491H14.125C13.0735 24.2491 12.25 25.0726 12.25 26.1241C12.25 26.5981 12.4236 27.0204 12.7041 27.3474C11.7801 27.6268 11.125 28.4728 11.125 29.4995C11.125 30.761 12.1135 31.7495 13.375 31.7495H21.4356L21.4323 31.7649L29.3417 33.593C29.4336 33.6144 29.5263 33.6245 29.617 33.6245C30.1499 33.6245 30.6374 33.2746 30.7709 32.7556L32.7933 24.902C32.9676 24.2248 32.8615 23.5194 32.4948 22.9153ZM29.23 21.3065L25.9191 20.5411L27.0404 15.2308L30.8159 16.103L29.23 21.3065ZM31.4928 13.8819L31.0353 15.3834L27.1956 14.4961L27.5192 12.9631L31.4928 13.8819ZM30.0936 11.1811C30.6325 11.3053 31.0844 11.618 31.3675 12.0643C31.5828 12.3965 31.681 12.7749 31.6611 13.1506L27.7308 12.2424C28.1376 11.4208 29.119 10.9543 30.0936 11.1811ZM11.875 29.4995C11.875 28.6584 12.5339 27.9995 13.375 27.9995H19V27.2495H14.125C13.4943 27.2495 13 26.7556 13 26.1245C13 25.4934 13.4943 24.9995 14.125 24.9995H18.25V24.2495H16C15.5031 24.2495 15.1536 24.113 14.9605 23.8438C14.7422 23.5393 14.7674 23.129 14.8551 22.8699C15.0595 22.268 15.5234 22.0768 15.9719 21.8915C16.2242 21.7876 16.4631 21.689 16.6379 21.5173C16.9289 21.2311 16.9514 20.8494 16.8985 20.5336C18.1667 20.705 18.7758 21.4839 19.0454 21.9995H16.75V22.7495H20.5C20.9207 22.7495 21.25 23.0791 21.25 23.4995C21.25 23.9199 20.9207 24.2495 20.5 24.2495H20.125V24.9995H22C22.6307 24.9995 23.125 25.4934 23.125 26.1245C23.125 26.7556 22.6307 27.2495 22 27.2495H20.6639V27.9995H22.75C23.5911 27.9995 24.25 28.6584 24.25 29.4995C24.25 30.3406 23.5911 30.9995 22.75 30.9995H13.375C12.5339 30.9995 11.875 30.3406 11.875 29.4995ZM32.0672 24.7149L30.0449 32.5685C29.9897 32.7819 29.7449 32.9173 29.5105 32.8618L23.7351 31.5268C24.4892 31.1679 25 30.4051 25 29.4995C25 28.4728 24.3449 27.6268 23.4209 27.3478C23.7014 27.0208 23.875 26.5985 23.875 26.1245C23.875 25.073 23.0515 24.2495 22 24.2495H21.7979C21.9231 24.0294 22 23.7763 22 23.4995C22 23.1463 21.8789 22.8294 21.682 22.5759L21.7409 22.3475C22.0094 21.3061 23.1314 20.6664 24.2395 20.9229L25.7646 21.2754V21.275L29.0114 22.0258L30.5556 22.3824C31.1099 22.5106 31.5711 22.838 31.8542 23.3045C32.1149 23.7343 32.1906 24.2353 32.0672 24.7149Z" fill="black"/>
<path d="M27.7608 16.9893L27.9296 16.2584L29.5082 16.6231L29.3394 17.3539L27.7608 16.9893Z" fill="black"/>
</svg>
