<svg width="44" height="44" viewBox="0 0 44 44" fill="none" xmlns="http://www.w3.org/2000/svg">
<rect width="44" height="44" rx="22" fill="white"/>
<path d="M23.5 30.625C22.8044 30.625 22.3217 30.2834 22 30.0044C21.6783 30.2834 21.1956 30.625 20.5 30.625C19.5467 30.625 19 30.0782 19 29.125C19 27.7716 21.328 26.5 22 26.5C22.672 26.5 25 27.7716 25 29.125C25 30.0782 24.4532 30.625 23.5 30.625Z" fill="#1890FF" fill-opacity="0.5"/>
<path d="M23.5 26.125C22.8798 26.125 22.375 25.6202 22.375 25C22.375 24.3798 22.8798 23.875 23.5 23.875C24.1202 23.875 24.625 24.3798 24.625 25C24.625 25.6202 24.1202 26.125 23.5 26.125Z" fill="#1890FF" fill-opacity="0.5"/>
<path d="M20.5 26.125C19.8798 26.125 19.375 25.6202 19.375 25C19.375 24.3798 19.8798 23.875 20.5 23.875C21.1202 23.875 21.625 24.3798 21.625 25C21.625 25.6202 21.1202 26.125 20.5 26.125Z" fill="#1890FF" fill-opacity="0.5"/>
<path d="M18.25 27.625C17.6298 27.625 17.125 27.1202 17.125 26.5C17.125 25.8798 17.6298 25.375 18.25 25.375C18.8702 25.375 19.375 25.8798 19.375 26.5C19.375 27.1202 18.8702 27.625 18.25 27.625Z" fill="#1890FF" fill-opacity="0.5"/>
<path d="M25.75 27.625C25.1298 27.625 24.625 27.1202 24.625 26.5C24.625 25.8798 25.1298 25.375 25.75 25.375C26.3702 25.375 26.875 25.8798 26.875 26.5C26.875 27.1202 26.3702 27.625 25.75 27.625Z" fill="#1890FF" fill-opacity="0.5"/>
<path d="M26.5 13.375C25.6727 13.375 25 12.7023 25 11.875C25 11.0477 25.6727 10.375 26.5 10.375C27.3273 10.375 28 11.0477 28 11.875C28 12.7023 27.3273 13.375 26.5 13.375Z" fill="#1890FF" fill-opacity="0.5"/>
<path d="M29.5 14.875C28.8798 14.875 28.375 14.3702 28.375 13.75C28.375 13.1298 28.8798 12.625 29.5 12.625C30.1202 12.625 30.625 13.1298 30.625 13.75C30.625 14.3702 30.1202 14.875 29.5 14.875Z" fill="#1890FF" fill-opacity="0.5"/>
<path d="M20.125 17.875C19.0911 17.875 18.25 17.0339 18.25 16C18.25 14.9661 19.0911 14.125 20.125 14.125C21.1589 14.125 22 14.9661 22 16C22 17.0339 21.1589 17.875 20.125 17.875Z" fill="#1890FF" fill-opacity="0.5"/>
<path d="M22.75 20.125C22.1298 20.125 21.625 19.6202 21.625 19C21.625 18.3798 22.1298 17.875 22.75 17.875C23.3702 17.875 23.875 18.3798 23.875 19C23.875 19.6202 23.3702 20.125 22.75 20.125Z" fill="#1890FF" fill-opacity="0.5"/>
<path d="M25.375 18.625C24.7548 18.625 24.25 18.1202 24.25 17.5C24.25 16.8798 24.7548 16.375 25.375 16.375C25.9952 16.375 26.5 16.8798 26.5 17.5C26.5 18.1202 25.9952 18.625 25.375 18.625Z" fill="#1890FF" fill-opacity="0.5"/>
<path d="M30.8901 16.4849C30.4761 16.0705 29.6297 15.625 28.75 15.625H27.4825C27.3869 15.3993 27.2432 15.2024 27.0516 15.0363C26.4415 14.5068 25.4943 14.4528 24.9651 14.473C24.8984 14.1138 24.736 13.8314 24.4802 13.6315C24.1742 13.3923 23.8064 13.3326 23.5176 13.3322C23.5064 12.8601 23.398 12.124 22.9019 11.5521C22.4399 11.02 21.7581 10.75 20.875 10.75C19.0465 10.75 18.4026 12.082 18.2751 13.0199C17.7246 13.0848 17.2799 13.3094 16.9506 13.6892C16.4309 14.2885 16.3484 15.1236 16.3521 15.625H15.25C14.3702 15.625 13.5239 16.0705 13.1099 16.4849C12.25 17.3447 12.25 17.854 12.25 18.625C12.25 19.585 12.6137 21.9565 12.6257 22.0255C12.658 22.495 12.9685 22.8932 13.375 23.0507V28C13.375 31.1016 15.8984 33.625 19 33.625H25C28.1016 33.625 30.625 31.1016 30.625 28V23.0511C31.0315 22.8948 31.3412 22.5017 31.3705 22.057C31.3862 21.9565 31.75 19.585 31.75 18.625C31.75 17.854 31.75 17.3447 30.8901 16.4849ZM17.1801 16.3742L17.1213 15.9479C17.1198 15.9366 16.9709 14.8079 17.5187 14.1786C17.77 13.8902 18.1319 13.75 18.625 13.75H19V13.375C19 13.2985 19.0214 11.5 20.875 11.5C21.529 11.5 22.0195 11.6819 22.3323 12.0404C22.8861 12.6752 22.7549 13.6881 22.7541 13.6967L22.6754 14.2491L23.2165 14.1137C23.2214 14.1123 23.7317 13.9983 24.0194 14.2225C24.172 14.3425 24.25 14.5619 24.25 14.875V15.3074L24.6782 15.2463C25.0292 15.1967 26.0526 15.1626 26.5607 15.6029C26.7722 15.7863 26.875 16.039 26.875 16.375C26.875 16.39 26.9009 17.875 29.125 17.875C29.269 17.875 29.3721 17.9714 29.4096 18.013C29.479 18.0899 29.506 18.1701 29.503 18.2035L29.1689 20.875H14.8311L14.4981 18.2125C14.494 18.1701 14.521 18.0895 14.5904 18.013C14.6279 17.9714 14.731 17.875 14.875 17.875L15.7218 17.872L15.6145 17.4115C15.6134 17.4074 15.52 16.9915 15.7457 16.7065C15.9205 16.4868 16.2584 16.375 16.75 16.375L17.1801 16.3742ZM25 32.875H19C16.312 32.875 14.125 30.688 14.125 28V23.125H14.875V28C14.875 30.2744 16.7256 32.125 19 32.125H25C27.2744 32.125 29.125 30.2744 29.125 28V23.125H29.875V28C29.875 30.688 27.688 32.875 25 32.875ZM15.625 23.125H28.375V28C28.375 29.8611 26.8608 31.375 25 31.375H19C17.1392 31.375 15.625 29.8611 15.625 28V23.125ZM30.6257 21.9745C30.6115 22.1841 30.4322 22.375 30.25 22.375H13.75C13.5677 22.375 13.3885 22.1841 13.3705 21.943C13.3671 21.919 13 19.5276 13 18.625C13 17.8997 13 17.6553 13.6401 17.0151C13.9274 16.7279 14.4895 16.4399 15.0644 16.3863C14.9129 16.6383 14.8563 16.906 14.8469 17.1254C14.5439 17.1332 14.2488 17.2727 14.0343 17.5097C13.828 17.7374 13.7253 18.0209 13.753 18.2965L14.1689 21.625H29.8311L30.2481 18.2875C30.2747 18.0213 30.1716 17.7378 29.9657 17.5101C29.7441 17.2653 29.4377 17.125 29.125 17.125C27.7026 17.125 27.6287 16.4444 27.625 16.375H28.75C29.3867 16.375 30.0415 16.6971 30.3599 17.0151C31 17.6553 31 17.8997 31 18.625C31 19.5276 30.6329 21.919 30.6257 21.9745Z" fill="black"/>
<path d="M16.375 19.75C16.375 19.5692 16.6007 19 17.125 19H18.25V18.25H17.125C16.1264 18.25 15.625 19.2115 15.625 19.75H16.375Z" fill="black"/>
<path d="M26.5 19.375H28V20.125H26.5V19.375Z" fill="black"/>
</svg>
