<svg width="44" height="44" viewBox="0 0 44 44" fill="none" xmlns="http://www.w3.org/2000/svg">
<rect width="44" height="44" rx="22" fill="white"/>
<path d="M24.7166 23.2121C23.8338 22.3065 23.8304 20.8496 24.7087 19.965C25.1321 19.5386 25.6923 19.305 26.2968 19.3076C26.9099 19.3106 27.4867 19.557 27.9206 20.0025L27.3836 20.526C27.0911 20.2256 26.7037 20.0595 26.2931 20.0576C26.2908 20.0576 26.2886 20.0576 26.2863 20.0576C25.8907 20.0576 25.5198 20.2121 25.2408 20.493C24.6491 21.0893 24.6547 22.0744 25.2536 22.6883L24.7166 23.2121Z" fill="black"/>
<path d="M25.2056 29.6958L25.0477 30.031C24.6214 30.9363 23.8774 31.6113 22.9534 31.9312C22.0556 32.242 21.0915 32.1783 20.2391 31.7523C18.6259 30.946 17.9516 28.9349 18.7361 27.2699L24.5782 14.8709C25.1865 13.5794 24.6589 12.0175 23.4019 11.3894C22.7962 11.0864 22.1107 11.041 21.4725 11.2627C20.8196 11.4888 20.295 11.9635 19.9954 12.5999L18.4222 15.9389L17.8661 15.661L16.0357 17.5915L10.4835 29.3755C10.2236 29.9279 10.4509 30.5965 10.9901 30.8662L12.2917 31.5168C12.4444 31.5929 12.6086 31.6315 12.774 31.6315C12.8929 31.6315 13.0125 31.6117 13.1284 31.5715C13.41 31.474 13.6361 31.2697 13.7651 30.9963L19.2915 19.2674L19.6545 16.5554L19.0935 16.2749L20.6741 12.9198C20.8871 12.4679 21.258 12.1308 21.7181 11.9718C22.164 11.8177 22.6429 11.8488 23.0666 12.0607C23.9621 12.508 24.336 13.6259 23.8999 14.5522L18.0577 26.9508C17.1011 28.981 17.9291 31.4362 19.9039 32.4235C20.5057 32.7247 21.1537 32.8762 21.8051 32.8762C22.2731 32.8762 22.743 32.7978 23.199 32.6399C24.3157 32.2533 25.2135 31.4403 25.7269 30.3505L25.8847 30.0153L25.2056 29.6958ZM18.0281 16.5805L18.843 16.9878L18.6465 18.5354L16.9691 17.6969L18.0281 16.5805ZM16.2127 18.9749L16.5244 18.3134L18.4564 19.279L18.1447 19.9405L16.2127 18.9749ZM17.8249 20.6193L17.5132 21.2808L15.5812 20.3152L15.8932 19.6533L17.8249 20.6193ZM13.0864 30.6764C13.0444 30.7657 12.972 30.8317 12.8827 30.8628C12.798 30.8917 12.7072 30.886 12.6266 30.8459L11.325 30.1953C11.1469 30.1064 11.0737 29.8822 11.1619 29.695L14.6299 22.3349L15.9131 22.9762L16.2487 22.3053L14.9497 21.6562L15.2614 20.9947L17.1934 21.9603L13.0864 30.6764Z" fill="black"/>
<path d="M31.393 26.4261C31.2993 26.4261 31.2055 26.4201 31.1114 26.4085L31.204 25.6645C31.603 25.714 31.993 25.6048 32.305 25.3566C32.6241 25.1031 32.8236 24.736 32.8668 24.3223C32.9556 23.4707 32.347 22.6926 31.51 22.5887L31.6026 21.8447C32.842 21.9989 33.7435 23.1452 33.6126 24.4C33.5485 25.0157 33.2496 25.564 32.7715 25.9438C32.374 26.2588 31.8929 26.4261 31.393 26.4261Z" fill="black"/>
<path d="M31.0463 19.4756C30.8588 19.5611 30.6383 19.5671 30.4392 19.4674C30.2431 19.3691 30.1122 19.191 30.0597 18.99C29.7721 18.9645 29.4586 19.0024 29.1151 19.1212C27.0455 19.8379 24.2555 23.181 23.531 24.7189C22.5743 26.7491 23.4023 29.2042 25.3771 30.1916C25.9295 30.4672 26.5235 30.6067 27.1205 30.6067C27.5498 30.6067 27.9811 30.5347 28.3992 30.3896C29.423 30.0352 30.2457 29.2897 30.7167 28.2907C31.5143 26.5972 32.5602 21.1522 31.0463 19.4756Z" fill="#1890FF" fill-opacity="0.5"/>
<path d="M30.7543 19.9171C30.589 19.9171 30.4247 19.8784 30.2717 19.8023C29.7321 19.5323 29.5052 18.8637 29.7651 18.3113C29.8941 18.0379 30.1202 17.8336 30.4022 17.7361C30.679 17.6397 30.9763 17.6596 31.2388 17.7908C31.7781 18.0604 32.0053 18.7291 31.7455 19.2814V19.2818C31.6165 19.5552 31.3907 19.7592 31.1091 19.8567C30.9928 19.8976 30.8736 19.9171 30.7543 19.9171ZM30.7555 18.4268C30.7191 18.4268 30.6831 18.4332 30.6478 18.4452C30.5586 18.4763 30.4862 18.5427 30.4442 18.6319C30.3561 18.8183 30.4296 19.0429 30.6077 19.1318C30.6876 19.1719 30.7787 19.1783 30.8635 19.1487C30.9527 19.1179 31.0251 19.0516 31.0671 18.9627C31.1552 18.7756 31.0821 18.5513 30.904 18.4624C30.8567 18.4388 30.8061 18.4268 30.7555 18.4268Z" fill="black"/>
<path d="M26.16 27.6855L28.3693 22.992L29.0481 23.3115L26.8387 28.005L26.16 27.6855Z" fill="black"/>
<path d="M26.4312 23.6953L27.064 22.3556L27.7425 22.6761L27.1097 24.0158L26.4312 23.6953Z" fill="black"/>
<path d="M25.1738 26.3652L25.963 24.6887L26.6418 25.0082L25.8526 26.6847L25.1738 26.3652Z" fill="black"/>
<path d="M27.7771 27.665L29.3553 24.3124L30.034 24.6319L28.4559 27.9845L27.7771 27.665Z" fill="black"/>
<path d="M30.1431 21.4307C30.0088 21.4307 29.8798 21.5079 29.8176 21.6407C29.7302 21.8259 29.8052 22.0487 29.9852 22.1383C30.0362 22.1638 30.0898 22.1758 30.1427 22.1758C30.277 22.1758 30.406 22.0985 30.4682 21.9658C30.5556 21.7805 30.4806 21.5578 30.3006 21.4682C30.25 21.4427 30.1963 21.4307 30.1431 21.4307Z" fill="black"/>
<path d="M28.8421 20.7803C28.7078 20.7803 28.5788 20.8575 28.5166 20.9903C28.4292 21.1755 28.5042 21.3983 28.6842 21.4879C28.7352 21.5134 28.7888 21.5254 28.8417 21.5254C28.9759 21.5254 29.1049 21.4481 29.1672 21.3154C29.2546 21.1301 29.1796 20.9074 28.9996 20.8178C28.9486 20.7923 28.8949 20.7803 28.8421 20.7803Z" fill="black"/>
</svg>
