<svg width="44" height="44" viewBox="0 0 44 44" fill="none" xmlns="http://www.w3.org/2000/svg">
<rect width="44" height="44" rx="22" fill="white"/>
<path d="M23.1737 20.4512C23.0777 20.4512 22.9817 20.4879 22.9086 20.561C22.7619 20.7077 22.7619 20.945 22.9086 21.0913C22.9817 21.1644 23.0777 21.2012 23.1737 21.2012C23.2697 21.2012 23.3657 21.1644 23.4388 21.0913C23.5854 20.9447 23.5854 20.7073 23.4388 20.561C23.3657 20.4879 23.2697 20.4512 23.1737 20.4512Z" fill="black"/>
<path d="M23.9692 21.7773C23.8732 21.7773 23.7772 21.8141 23.7041 21.8872C23.5575 22.0338 23.5575 22.2712 23.7041 22.4175C23.7772 22.4906 23.8732 22.5273 23.9692 22.5273C24.0652 22.5273 24.1612 22.4906 24.2343 22.4175C24.381 22.2708 24.381 22.0335 24.2343 21.8872C24.1612 21.8137 24.0652 21.7773 23.9692 21.7773Z" fill="black"/>
<path d="M21.8477 19.6553C21.7517 19.6553 21.6557 19.692 21.5826 19.7651C21.436 19.9118 21.436 20.1491 21.5826 20.2954C21.6557 20.3685 21.7517 20.4053 21.8477 20.4053C21.9437 20.4053 22.0397 20.3685 22.1129 20.2954C22.2595 20.1488 22.2595 19.9114 22.1129 19.7651C22.0397 19.6916 21.9437 19.6553 21.8477 19.6553Z" fill="black"/>
<path d="M22.1126 14.46L29.5361 21.8835L28.4756 22.944L21.0521 15.5205L22.1126 14.46Z" fill="#1890FF" fill-opacity="0.5"/>
<path d="M26.8852 10.748L33.2482 17.111L32.1877 18.1715L25.8247 11.8085L26.8852 10.748Z" fill="#1890FF" fill-opacity="0.5"/>
<path d="M20.6551 21.2244C20.1432 21.7359 20.2028 22.6284 20.7878 23.2134C21.1058 23.5314 21.5146 23.6938 21.9038 23.6938C22.2304 23.6938 22.5432 23.579 22.7764 23.3458H22.7768C23.2883 22.8339 23.2287 21.9418 22.6441 21.3568C22.0583 20.7718 21.1666 20.7122 20.6551 21.2244ZM22.2458 22.8155C22.0298 23.0304 21.6049 22.9704 21.3177 22.6828C21.0301 22.3952 20.9697 21.9703 21.1849 21.7543C21.2727 21.6673 21.3942 21.6253 21.5269 21.6253C21.7223 21.6253 21.9421 21.716 22.1131 21.887C22.4007 22.1747 22.4614 22.5999 22.2458 22.8155Z" fill="black"/>
<path d="M27.6814 22.1519L27.1511 21.6216L21.9697 26.8034L22.113 26.6601L17.34 21.8871L17.1967 22.0304V22.03L22.3781 16.8486L21.8479 16.3184L16.4224 21.7435L16.6875 25.1909L15.4894 26.389L16.2847 27.1844L10.4846 32.9849L11.0149 33.5151L16.815 27.715L17.6104 28.5107L18.8085 27.3126L22.2559 27.5777L27.6814 22.1519ZM21.1309 26.7389L18.8329 26.5622L17.4382 25.1672L17.2612 22.8692L21.1309 26.7389ZM17.6107 27.4499L16.5499 26.389L17.0745 25.8644L18.135 26.9252L17.6107 27.4499Z" fill="black"/>
<path d="M24.7628 17.1152L27.9443 13.9337L28.4746 14.464L25.2931 17.6455L24.7628 17.1152Z" fill="black"/>
<path d="M23.7021 16.0547L26.8836 12.8732L27.4138 13.4034L24.2323 16.5849L23.7021 16.0547Z" fill="black"/>
<path d="M27.4139 19.7666L30.5954 16.5851L31.1256 17.1153L27.9441 20.2969L27.4139 19.7666Z" fill="black"/>
<path d="M26.3531 18.7061L29.5346 15.5246L30.0648 16.0548L26.8833 19.2363L26.3531 18.7061Z" fill="black"/>
</svg>
