<svg width="42" height="42" viewBox="0 0 42 42" fill="none" xmlns="http://www.w3.org/2000/svg">
<circle cx="21" cy="21" r="21" fill="#1890FF"/>
<path fill-rule="evenodd" clip-rule="evenodd" d="M21 11C18.284 11 17.944 11.012 16.877 11.06C15.813 11.109 15.086 11.278 14.45 11.525C13.7825 11.7758 13.1778 12.1693 12.678 12.678C12.1694 13.1778 11.7759 13.7825 11.525 14.45C11.278 15.086 11.109 15.813 11.06 16.877C11.011 17.944 11 18.284 11 21C11 23.716 11.011 24.056 11.06 25.123C11.109 26.187 11.278 26.914 11.525 27.55C11.7759 28.2175 12.1694 28.8222 12.678 29.322C13.1778 29.8306 13.7825 30.2241 14.45 30.475C15.086 30.722 15.813 30.891 16.877 30.94C17.944 30.988 18.284 31 21 31C23.716 31 24.056 30.988 25.123 30.94C26.187 30.891 26.914 30.722 27.55 30.475C28.2175 30.2241 28.8222 29.8306 29.322 29.322C29.8306 28.8222 30.2241 28.2175 30.475 27.55C30.722 26.914 30.891 26.187 30.94 25.123C30.988 24.056 31 23.716 31 21C31 18.284 30.988 17.944 30.94 16.877C30.891 15.813 30.722 15.086 30.475 14.45C30.2241 13.7825 29.8306 13.1778 29.322 12.678C28.8222 12.1693 28.2175 11.7758 27.55 11.525C26.914 11.278 26.187 11.109 25.123 11.06C24.056 11.012 23.716 11 21 11ZM21 12.802C23.67 12.802 23.986 12.812 25.04 12.86C26.016 12.905 26.545 13.067 26.898 13.204C27.364 13.386 27.698 13.603 28.048 13.952C28.398 14.302 28.614 14.636 28.796 15.102C28.932 15.455 29.096 15.984 29.14 16.959C29.188 18.014 29.198 18.329 29.198 21C29.198 23.67 29.188 23.986 29.14 25.04C29.095 26.016 28.932 26.545 28.796 26.898C28.6357 27.3324 28.3801 27.7253 28.048 28.048C27.698 28.398 27.364 28.614 26.898 28.796C26.545 28.932 26.016 29.096 25.041 29.14C23.987 29.188 23.671 29.198 21 29.198C18.33 29.198 18.013 29.188 16.96 29.14C15.984 29.095 15.455 28.932 15.102 28.796C14.6676 28.6357 14.2746 28.3801 13.952 28.048C13.6199 27.7254 13.3643 27.3324 13.204 26.898C13.067 26.545 12.904 26.016 12.86 25.041C12.812 23.986 12.802 23.671 12.802 21C12.802 18.33 12.812 18.014 12.86 16.96C12.905 15.984 13.067 15.455 13.204 15.102C13.386 14.636 13.603 14.302 13.952 13.952C14.302 13.602 14.636 13.386 15.102 13.204C15.455 13.067 15.984 12.904 16.959 12.86C18.014 12.812 18.329 12.802 21 12.802ZM21 24.333C20.116 24.333 19.2683 23.9818 18.6432 23.3568C18.0182 22.7317 17.667 21.884 17.667 21C17.667 20.116 18.0182 19.2683 18.6432 18.6432C19.2683 18.0182 20.116 17.667 21 17.667C21.884 17.667 22.7317 18.0182 23.3568 18.6432C23.9818 19.2683 24.333 20.116 24.333 21C24.333 21.884 23.9818 22.7317 23.3568 23.3568C22.7317 23.9818 21.884 24.333 21 24.333ZM21 15.865C20.3257 15.865 19.6579 15.9978 19.0349 16.2559C18.4119 16.5139 17.8458 16.8922 17.369 17.369C16.8922 17.8458 16.5139 18.4119 16.2559 19.0349C15.9978 19.6579 15.865 20.3257 15.865 21C15.865 21.6743 15.9978 22.3421 16.2559 22.9651C16.5139 23.5881 16.8922 24.1542 17.369 24.631C17.8458 25.1078 18.4119 25.4861 19.0349 25.7441C19.6579 26.0022 20.3257 26.135 21 26.135C22.3619 26.135 23.668 25.594 24.631 24.631C25.594 23.668 26.135 22.3619 26.135 21C26.135 19.6381 25.594 18.332 24.631 17.369C23.668 16.406 22.3619 15.865 21 15.865ZM27.538 15.662C27.538 15.8196 27.507 15.9756 27.4467 16.1212C27.3863 16.2668 27.298 16.3991 27.1865 16.5105C27.0751 16.622 26.9428 16.7104 26.7972 16.7707C26.6516 16.831 26.4956 16.862 26.338 16.862C26.1804 16.862 26.0244 16.831 25.8788 16.7707C25.7332 16.7104 25.6009 16.622 25.4895 16.5105C25.378 16.3991 25.2897 16.2668 25.2293 16.1212C25.169 15.9756 25.138 15.8196 25.138 15.662C25.138 15.3437 25.2644 15.0385 25.4895 14.8135C25.7145 14.5884 26.0197 14.462 26.338 14.462C26.6563 14.462 26.9615 14.5884 27.1865 14.8135C27.4116 15.0385 27.538 15.3437 27.538 15.662Z" fill="white"/>
</svg>
