<svg width="35" height="36" viewBox="0 0 35 36" fill="none" xmlns="http://www.w3.org/2000/svg">
<g clip-path="url(#clip0)">
<path d="M32.3854 11.6636L18.1665 0.725924C17.7734 0.424692 17.2265 0.424692 16.8334 0.725924L2.61444 11.6636C2.24272 11.9498 2.09427 12.4401 2.2459 12.8834C2.39651 13.3267 2.81311 13.6247 3.28096 13.6247H4.47835L6.56764 34.5153C6.62315 35.0738 7.09425 35.5001 7.65603 35.5001H27.3438C27.9057 35.5001 28.3767 35.0739 28.4322 34.5153L30.5215 13.6247H31.7189C32.1868 13.6247 32.6034 13.3266 32.754 12.8834C32.9056 12.4401 32.7572 11.9498 32.3854 11.6636ZM13.1249 33.3125V26.7499C13.1249 24.337 15.0871 22.3748 17.4999 22.3748C19.9128 22.3748 21.875 24.337 21.875 26.7499V33.3125H13.1249ZM28.4429 12.4219L26.3537 33.3125H24.0625V26.7499C24.0625 23.1311 21.1188 20.1873 17.4999 20.1873C13.8811 20.1873 10.9374 23.1311 10.9374 26.7499V33.3125H8.64621L6.55693 12.4219C6.52704 12.1261 6.38178 11.8676 6.16812 11.6903L17.4999 2.97328L28.8318 11.6903C28.6182 11.8676 28.4729 12.1261 28.4429 12.4219Z" fill="#262626"/>
<path d="M13.1249 11.4375C11.9189 11.4375 10.9374 12.4191 10.9374 13.625C10.9374 14.032 11.0793 14.3921 11.2737 14.7188C11.0793 15.0454 10.9374 15.4055 10.9374 15.8125C10.9374 17.0184 11.919 18 13.1249 18C14.3307 18 15.3124 17.0184 15.3124 15.8125H19.6875C19.6875 17.0184 20.6691 18 21.875 18C23.0808 18 24.0625 17.0184 24.0625 15.8125C24.0625 15.4055 23.9205 15.0454 23.7261 14.7188C23.9205 14.3921 24.0625 14.032 24.0625 13.625C24.0625 12.4191 23.0808 11.4375 21.875 11.4375C20.6691 11.4375 19.6875 12.4191 19.6875 13.625H15.3124C15.3125 12.4191 14.3308 11.4375 13.1249 11.4375Z" fill="#096DD9"/>
</g>
<defs>
<clipPath id="clip0">
<rect width="35" height="35" fill="white" transform="translate(0 0.5)"/>
</clipPath>
</defs>
</svg>
